<svg xmlns="http://www.w3.org/2000/svg" width="47.911" height="47.921" viewBox="0 0 47.911 47.921">
  <g id="_5d2218a04da61" data-name="5d2218a04da61" transform="translate(0.01 0)">
    <path id="路径_8" data-name="路径 8" d="M834.629,955.856A23.953,23.953,0,1,0,849.454,982.6a23.757,23.757,0,0,0-14.825-26.745Zm-8.711,6.921c5.051,0,9.181,4.651,9.181,10.381a10.456,10.456,0,0,1-5.186,9.3,8.056,8.056,0,0,1-8.125-.07,10.563,10.563,0,0,1-5.051-9.246c0-5.707,4.125-10.367,9.181-10.367Zm.065,37.795a22.088,22.088,0,0,1-17.893-9.116c.86-3.656,4.781-6.791,10.107-8.316a11.111,11.111,0,0,0,15.307.13c5.521,1.67,9.377,5.056,9.846,9.051A22.367,22.367,0,0,1,825.983,1000.571Z" transform="translate(-801.97 -954.2)" fill="#d3d3d3"/>
    <path id="路径_9" data-name="路径 9" d="M850.45,1025.6a22.366,22.366,0,0,1-17.367,8.251,22.088,22.088,0,0,1-17.893-9.116c.86-3.656,4.781-6.791,10.107-8.316a11.112,11.112,0,0,0,15.307.13C846.1,1018.22,849.957,1021.606,850.45,1025.6Z" transform="translate(-809.047 -987.481)" fill="#fff"/>
    <path id="路径_10" data-name="路径 10" d="M852.093,983.045a10.456,10.456,0,0,1-5.186,9.3,8.056,8.056,0,0,1-8.125-.07,10.563,10.563,0,0,1-5.051-9.246c0-5.721,4.126-10.381,9.181-10.381S852.093,977.306,852.093,983.045Z" transform="translate(-818.964 -964.069)" fill="#fff"/>
  </g>
</svg>
