<svg xmlns="http://www.w3.org/2000/svg" width="73" height="50" viewBox="0 0 73 50">
  <g id="组_58" data-name="组 58" transform="translate(-1115 -24)">
    <rect id="矩形_57" data-name="矩形 57" width="73" height="50" rx="15" transform="translate(1115 24)" fill="#8fa1cd"/>
    <path id="搜索" d="M75.034,85.355a10.726,10.726,0,1,1,7.573-3.137A10.724,10.724,0,0,1,75.034,85.355Zm0-17.812a7.1,7.1,0,1,0,5.059,2.076A7.1,7.1,0,0,0,75.034,67.543ZM89.489,90.906a1.835,1.835,0,0,1-1.281-.539l-8.163-8.148a1.841,1.841,0,0,1,0-2.564,1.8,1.8,0,0,1,2.552-.012l.012.012L90.772,87.8a1.822,1.822,0,0,1-1.284,3.1Z" transform="translate(1073.7 -28.9)" fill="#fff"/>
  </g>
</svg>
