<svg id="图层_1" data-name="图层 1" xmlns="http://www.w3.org/2000/svg" viewBox="0 0 104.02 55.43"><defs><style>.cls-1,.cls-2{fill:#82a0d3;}.cls-1{stroke:#82a0d3;stroke-miterlimit:10;}</style></defs><title>logo1</title><path class="cls-1" d="M62.11,122.24C62.11,117,65.32,114,69,114a5.35,5.35,0,0,1,3.17,1,1.21,1.21,0,0,1,.3,1.65l-.16.23a1.09,1.09,0,0,1-1.49.33,2.93,2.93,0,0,0-1.69-.54c-2.32,0-4,2.21-4,5.53s1.59,5.47,3.92,5.47a3.92,3.92,0,0,0,2.09-.67,1.1,1.1,0,0,1,1.56.39l.12.22a1.13,1.13,0,0,1-.3,1.44,6.27,6.27,0,0,1-3.75,1.28C65,130.37,62.11,127.39,62.11,122.24Z" transform="translate(-37.5 -86.06)"/><path class="cls-1" d="M76.14,126.35V108.56a1.15,1.15,0,0,1,1.14-1.15h.58A1.15,1.15,0,0,1,79,108.56v18c0,.87.36,1.19.71,1.19.12,0,.3-.07.4,0s.29,1.3.29,1.3a1.15,1.15,0,0,1-1.09,1.32H79C76.92,130.37,76.14,128.87,76.14,126.35Z" transform="translate(-37.5 -86.06)"/><path class="cls-1" d="M82.84,125.86c0-3.12,2.21-4.84,7.22-5.63a1.17,1.17,0,0,0,1-1.42,2.38,2.38,0,0,0-2.51-2.13,5.94,5.94,0,0,0-3,.91,1.17,1.17,0,0,1-1.63-.5l0-.1a1.16,1.16,0,0,1,.42-1.51A9.14,9.14,0,0,1,89,114c3.46,0,5,2.46,5,6.6v8.21A1.17,1.17,0,0,1,92.87,130h-.18a1.17,1.17,0,0,1-1.16-1l-.11-.77h-.07a6.61,6.61,0,0,1-4.42,2.15C84.54,130.37,82.84,128.61,82.84,125.86Zm8.3-.37v-1.77a1.2,1.2,0,0,0-1.39-1.33c-3,.62-4.11,1.7-4.11,3.25a2,2,0,0,0,2.17,2.15,4.28,4.28,0,0,0,3-1.46A1.16,1.16,0,0,0,91.14,125.49Z" transform="translate(-37.5 -86.06)"/><path class="cls-1" d="M97.24,127.37l.15-.23a1.12,1.12,0,0,1,1.59-.28,5.06,5.06,0,0,0,3,1c1.66,0,2.45-.9,2.45-2.09,0-1.42-1.57-2-3.08-2.7-1.84-.79-4-1.89-4-4.53s1.86-4.56,4.92-4.56a6.44,6.44,0,0,1,3.6,1.14,1.12,1.12,0,0,1,.32,1.57l-.12.18a1.1,1.1,0,0,1-1.49.34,4.14,4.14,0,0,0-2.26-.74c-1.52,0-2.22.85-2.22,1.93,0,1.33,1.43,1.84,2.95,2.46,1.94.83,4.08,1.79,4.08,4.74,0,2.6-1.84,4.73-5.27,4.73a7.86,7.86,0,0,1-4.4-1.49A1.11,1.11,0,0,1,97.24,127.37Z" transform="translate(-37.5 -86.06)"/><path class="cls-1" d="M109.37,127.33l.08-.12a1.18,1.18,0,0,1,1.64-.35,5.05,5.05,0,0,0,3,1c1.67,0,2.45-.9,2.45-2.09,0-1.42-1.56-2-3.08-2.7-1.84-.79-4-1.89-4-4.53s1.87-4.56,4.92-4.56a6.45,6.45,0,0,1,3.56,1.11,1.17,1.17,0,0,1,.34,1.64l-.07.1a1.15,1.15,0,0,1-1.56.35,4.14,4.14,0,0,0-2.22-.71c-1.51,0-2.22.85-2.22,1.93,0,1.33,1.44,1.84,3,2.46,1.94.83,4.08,1.79,4.08,4.74,0,2.6-1.84,4.73-5.27,4.73a7.78,7.78,0,0,1-4.36-1.46A1.16,1.16,0,0,1,109.37,127.33Z" transform="translate(-37.5 -86.06)"/><path class="cls-2" d="M132.46,141.49H47.25A10.54,10.54,0,0,1,42.42,140c-5.29-3.44-4.94-10.09-4.9-11.16.25-6.58,6.32-10.82,11.13-12.07a2.44,2.44,0,0,0,1.75-2.21A16.35,16.35,0,0,1,57,102.14C61.72,98.3,67.5,98,71,98.24a2.31,2.31,0,0,0,2.06-1c3.12-4.47,10.94-12.51,26.25-11C117.05,88,123,102.53,124.73,109a2.3,2.3,0,0,0,1.62,1.69c11.11,2.75,15.3,8.12,15.17,17-.14,9.4-5.79,12.75-6.46,13.19A4.7,4.7,0,0,1,132.46,141.49Zm-85.23-4.58h83.44a3.19,3.19,0,0,0,2.53-1,11.77,11.77,0,0,0,3.55-8.27c.54-10.71-11.21-12.09-13.26-12.63-2.41-.87-2.65-2.71-3.11-3.84-.88-2.33-4-16.77-21.54-19.92C84.32,88.62,77,100.34,76.35,101.3S74.79,104,73,103.55h0c-.07,0-7.75-1.79-13.14,2.55-3.79,3.06-4.61,8.33-4.72,10.54A4.36,4.36,0,0,1,51.67,121c-1.47.3-9.46,1.65-9.46,8.71a7.34,7.34,0,0,0,2.49,6.09A3.69,3.69,0,0,0,47.23,136.91Z" transform="translate(-37.5 -86.06)"/></svg>